<svg xmlns="http://www.w3.org/2000/svg" width="38" height="38" viewBox="0 0 38 38" fill="none">
            <g clip-path="url(#clip0_1219_2473)">
            <path d="M26.114 10.0586H4.34464C3.49716 10.0586 2.80859 10.7447 2.80859 11.5891V33.8915C2.80859 34.736 3.49716 35.4221 4.34464 35.4221H26.114C26.9615 35.4221 27.6501 34.736 27.6501 33.8915V11.5891C27.6501 10.7447 26.9615 10.0586 26.114 10.0586ZM26.5907 34.3665H3.86793V11.1141H26.5832V34.3665H26.5907Z" fill="#3A3844"></path>
            <path d="M37.0557 34.1026L35.0051 36.1534V9.10856L37.1011 11.197C37.3054 11.4006 37.6459 11.4006 37.8502 11.197C38.0545 10.9935 38.0545 10.6542 37.8502 10.4506L34.8462 7.45737C34.6419 7.25379 34.3014 7.25379 34.0971 7.45737L31.0932 10.4506C30.8889 10.6542 30.8889 10.9935 31.0932 11.197C31.2975 11.4006 31.638 11.4006 31.8423 11.197L33.9382 9.10856V36.2363L31.7969 34.1026C31.5926 33.899 31.2521 33.899 31.0478 34.1026C30.8435 34.3062 30.8435 34.6455 31.0478 34.849L34.0517 37.8423C34.256 38.0459 34.5965 38.0459 34.8008 37.8423L37.8048 34.849C38.0091 34.6455 38.0091 34.3062 37.8048 34.1026C37.5929 33.899 37.26 33.899 37.0557 34.1026Z" fill="#3A3844"></path>
            <path d="M31.2299 3.19703L28.2259 0.203776C28.0216 0.000204626 27.6811 0.000204626 27.4768 0.203776C27.2725 0.407348 27.2725 0.746633 27.4768 0.950205L29.5274 3.001H1.81815L3.91412 0.904967C4.11842 0.701395 4.11842 0.36211 3.91412 0.158538C3.70982 -0.0450335 3.36932 -0.0450335 3.16502 0.158538L0.161038 3.15179C-0.0432627 3.35536 -0.0432627 3.69465 0.161038 3.89822L3.16502 6.89148C3.36932 7.09505 3.70982 7.09505 3.91412 6.89148C4.11842 6.68791 4.11842 6.34862 3.91412 6.14505L1.81815 4.05656H29.6182L27.4693 6.19029C27.265 6.39386 27.265 6.73314 27.4693 6.93672C27.6736 7.14029 28.0141 7.14029 28.2184 6.93672L31.2224 3.94346C31.4342 3.73989 31.4342 3.4006 31.2299 3.19703Z" fill="#3A3844"></path>
            </g>
            <defs>
            <clipPath id="clip0_1219_2473">
            <rect width="38" height="38" fill="white"></rect>
            </clipPath>
            </defs>
          </svg>