<svg xmlns="http://www.w3.org/2000/svg" width="27" height="25" viewBox="0 0 27 25" fill="none">
        <g clip-path="url(#clip0_1390_2214)">
        <path d="M0.635121 14.0173C0.635121 11.5708 0.635121 9.11418 0.625 6.65756C0.625 5.86576 0.776812 5.14501 1.24237 4.46487C1.99131 3.37868 2.6694 2.25188 3.36774 1.13523C3.80293 0.444942 4.44054 0.0896448 5.21985 0.0896448C9.86529 0.0794934 14.5006 0.0794934 19.136 0.0896448C19.9254 0.0896448 20.563 0.444942 20.9881 1.13523C21.6155 2.14021 22.2633 3.12489 22.8806 4.14003C23.0932 4.48517 23.2754 4.61714 23.5992 4.272C23.7713 4.08927 23.9838 3.94715 24.1862 3.79488C24.4494 3.61216 24.7328 3.5614 24.9554 3.84564C25.1781 4.12988 25.1173 4.42427 24.8441 4.65775C24.3886 5.05365 23.913 5.4394 23.4474 5.82515C20.9779 7.85542 18.5186 9.87553 16.039 11.8957C15.7252 12.1494 15.705 12.3017 15.9783 12.6062C17.0308 13.794 18.053 15.0121 19.0651 16.2303C19.3181 16.545 19.5003 16.4942 19.7634 16.281C21.3625 14.9817 22.9616 13.6924 24.5708 12.3931C24.7631 12.2306 24.9655 12.0682 25.168 11.9261C25.4412 11.7434 25.7145 11.7637 25.927 12.0479C26.1395 12.3322 26.0485 12.6062 25.7954 12.8093C25.2489 13.2661 24.7125 13.7229 24.1458 14.1492C23.8421 14.3827 23.7409 14.6365 23.7409 15.0121C23.751 17.2251 23.751 19.4482 23.751 21.6612C23.751 22.8388 23.3057 23.2956 22.1418 23.2956C20.2897 23.2956 18.4275 23.3058 16.5754 23.2855C16.211 23.2855 15.9783 23.3768 15.7961 23.7017C15.3913 24.4427 14.3691 24.9604 13.529 24.2498C13.3671 24.1179 13.2456 24.128 13.0736 24.2397C12.4562 24.6559 11.8287 24.7574 11.2012 24.26C11.0494 24.1382 10.9381 24.2092 10.7863 24.2701C9.60215 24.8488 8.98478 24.666 8.38766 23.5392C8.23584 23.255 8.02331 23.2855 7.79053 23.2855C5.88782 23.2855 3.97499 23.2855 2.07228 23.2855C1.07032 23.2855 0.625 22.8388 0.625 21.8338C0.625 19.2351 0.635121 16.6262 0.635121 14.0173ZM21.3423 6.10939C21.2107 6.05863 21.1702 6.02818 21.1298 6.02818C19.2776 6.02818 17.4255 6.02818 15.5633 6.01803C15.2192 6.01803 15.1281 6.1906 15.1281 6.49514C15.1382 7.17528 15.1382 7.84527 15.118 8.52541C15.0978 9.09388 14.8953 9.27661 14.3286 9.27661C12.8813 9.28676 11.4239 9.28676 9.97662 9.27661C9.40986 9.27661 9.22768 9.08373 9.22768 8.5051C9.21756 7.86557 9.20744 7.21588 9.22768 6.57635C9.24793 6.16014 9.09611 6.01803 8.68116 6.01803C6.53555 6.03833 4.40006 6.03833 2.25445 6.01803C1.79901 6.01803 1.67756 6.1906 1.67756 6.61695C1.68768 11.6216 1.68768 16.6262 1.67756 21.6308C1.67756 22.0571 1.79901 22.2297 2.25445 22.2297C4.1774 22.2094 6.10036 22.2094 8.02331 22.2297C8.38766 22.2297 8.56983 22.1079 8.7014 21.7729C9.11635 20.7172 9.56167 19.6817 9.97662 18.626C10.0272 18.494 10.1588 18.3722 10.0475 18.1895C9.87541 18.2504 9.69324 18.3011 9.52119 18.3519C8.71152 18.5955 7.99295 18.4331 7.35534 17.8849C6.39386 17.0525 6.45458 16.2201 7.53751 15.5704C8.1144 15.2253 8.74189 14.9411 9.27829 14.5452C10.1892 13.8853 11.1304 13.3777 12.2943 13.4285C12.6283 13.4387 12.9623 13.398 13.3064 13.4488C13.7011 13.5199 14.0756 13.4488 14.45 13.3067C14.7739 13.1849 14.9156 13.0326 14.6221 12.6875C14.1768 12.1697 14.2172 11.9566 14.7536 11.5201C16.4337 10.1395 18.1239 8.75889 19.8039 7.37831C20.31 6.97225 20.8059 6.55605 21.3423 6.10939ZM14.0553 22.8286C14.0755 23.1129 14.116 23.3261 14.3286 23.4073C14.5411 23.4885 14.6828 23.3565 14.8042 23.2042C14.8953 23.0824 14.9763 22.9505 15.0269 22.8083C15.8366 20.7273 16.6361 18.6463 17.4559 16.5754C17.5571 16.3013 17.5267 16.0983 17.3344 15.8851C16.8486 15.337 16.3831 14.7888 15.9277 14.2203C15.7354 13.9767 15.5633 13.9158 15.29 14.1086C14.7941 14.4639 14.2274 14.5858 13.61 14.5655C13.0736 14.5451 12.5271 14.5553 11.9907 14.5655C11.5858 14.5756 11.181 14.6162 10.8268 14.8598C9.97662 15.4486 9.11635 16.0069 8.19536 16.4638C7.82089 16.6465 7.83101 16.8597 8.14476 17.1033C8.54959 17.4281 8.98478 17.3977 9.4301 17.215C9.99687 16.9815 10.4827 16.616 10.9988 16.3013C11.2316 16.1592 11.4644 16.1085 11.6972 16.3115C11.9198 16.5044 11.9401 16.7378 11.8389 17.0018C11.7882 17.1439 11.7275 17.286 11.6769 17.4281C10.9482 19.1945 10.2195 20.9608 9.49082 22.7271C9.39974 22.9606 9.30865 23.1941 9.55155 23.3667C9.80457 23.5494 10.0677 23.458 10.2904 23.2753C10.4725 23.1332 10.5434 22.92 10.6244 22.717C10.9685 21.8541 11.3126 20.9912 11.6567 20.1284C11.7984 19.7832 12.021 19.5193 12.436 19.6919C12.8307 19.8645 12.8206 20.1994 12.6789 20.5547C12.6384 20.6461 12.5979 20.7375 12.5574 20.839C12.3044 21.4785 12.0514 22.1282 11.7882 22.7677C11.687 23.0215 11.7174 23.255 11.9502 23.3971C12.1728 23.5392 12.3651 23.3971 12.5372 23.2448C12.7295 23.0723 12.8408 22.8388 12.9319 22.6053C13.1849 21.9759 13.4278 21.3465 13.691 20.7273C13.8327 20.372 14.0148 19.9863 14.4905 20.1791C14.9662 20.3619 14.865 20.7578 14.7233 21.1232C14.6221 21.3872 14.5107 21.6612 14.3994 21.9252C14.2881 22.2297 14.1565 22.5647 14.0553 22.8286ZM22.6074 18.829C22.6074 17.8443 22.6074 16.8698 22.6074 15.8851C22.6074 15.7735 22.6479 15.6212 22.5264 15.5704C22.3948 15.5095 22.3139 15.6516 22.2329 15.7227C21.484 16.3216 20.735 16.9307 19.9861 17.5296C19.3485 18.0372 19.2675 18.0372 18.6906 17.4586C18.5085 17.2759 18.3971 17.2048 18.2757 17.5195C17.7292 18.9407 17.1826 20.3517 16.6159 21.7628C16.4641 22.1384 16.5754 22.2399 16.9499 22.2297C18.6704 22.2196 20.3808 22.2094 22.1013 22.2196C22.5163 22.2196 22.6175 22.0368 22.6175 21.6612C22.5973 20.7172 22.6074 19.7731 22.6074 18.829ZM5.81697 4.87092C6.82905 4.87092 7.84113 4.86077 8.85321 4.88108C9.1872 4.89123 9.34913 4.76941 9.39974 4.43442C9.54143 3.48019 9.69324 2.53612 9.86529 1.58189C9.9159 1.27735 9.86529 1.15554 9.52119 1.15554C8.15488 1.16569 6.78857 1.15554 5.42226 1.16569C4.9061 1.16569 4.49115 1.37886 4.20777 1.84583C3.67136 2.72899 3.11472 3.59186 2.54795 4.45472C2.31517 4.79987 2.40626 4.87092 2.78073 4.87092C3.80293 4.86077 4.80489 4.87092 5.81697 4.87092ZM18.5085 4.87092C19.4699 4.87092 20.4314 4.87092 21.3828 4.87092C21.5548 4.87092 21.7977 4.96229 21.8888 4.76941C21.9698 4.60699 21.7775 4.46487 21.6965 4.3329C21.1804 3.50049 20.6338 2.68839 20.1379 1.84583C19.8647 1.38902 19.4801 1.17584 18.974 1.16569C17.6077 1.15554 16.2414 1.16569 14.8852 1.15554C14.5006 1.15554 14.4399 1.29765 14.5107 1.65295C14.6828 2.54627 14.8346 3.44974 14.9459 4.35321C14.9965 4.73896 15.1484 4.88108 15.5228 4.87092C16.5147 4.86077 17.5065 4.87092 18.5085 4.87092ZM12.183 4.87092C12.608 4.87092 13.023 4.87092 13.4481 4.87092C13.7618 4.88108 13.9136 4.79987 13.8428 4.42427C13.6707 3.48019 13.5189 2.52597 13.3772 1.57174C13.3367 1.29765 13.2153 1.14538 12.9117 1.15554C12.4056 1.16569 11.8996 1.16569 11.3935 1.15554C11.1911 1.15554 11.0393 1.20629 10.9988 1.44992C10.8369 2.45491 10.675 3.44974 10.5029 4.45472C10.4624 4.72881 10.5636 4.87092 10.8571 4.87092C11.3126 4.86077 11.7478 4.87092 12.183 4.87092ZM12.1627 8.20056C12.6485 8.20056 13.1444 8.20056 13.6302 8.20056C13.8833 8.20056 14.0047 8.09905 14.0047 7.83512C14.0047 7.358 14.0047 6.89104 14.0047 6.41393C14.0047 6.13984 13.8934 6.00787 13.6201 6.00787C12.6789 6.00787 11.7376 6.00787 10.7863 6.00787C10.513 6.00787 10.3815 6.11954 10.3815 6.40378C10.3815 6.86059 10.3916 7.3174 10.3815 7.77421C10.3713 8.0686 10.5029 8.21072 10.8065 8.20056C11.2518 8.19041 11.7073 8.20056 12.1627 8.20056Z" fill="#3B3A3D"></path>
        </g>
        <defs>
        <clipPath id="clip0_1390_2214">
        <rect width="25.4235" height="24.5155" fill="white" transform="translate(0.625 0.0810547)"></rect>
        </clipPath>
        </defs>
        </svg>