<svg xmlns="http://www.w3.org/2000/svg" width="38" height="39" viewBox="0 0 38 39" fill="none">
            <g clip-path="url(#clip0_1219_2503)">
            <path d="M19.3624 33.9854C18.8608 33.7608 18.3592 33.5362 17.8576 33.3115C16.6524 32.7763 15.4472 32.2346 14.2421 31.6994C12.7893 31.0519 11.3366 30.4044 9.89043 29.7503C8.62663 29.1887 7.36934 28.6205 6.11206 28.0655C5.4997 27.7946 4.90037 27.4841 4.2815 27.2463C4.26847 27.2397 4.26196 27.2397 4.25544 27.2331C4.3727 27.4445 4.48996 27.6493 4.60722 27.8607V26.1759V22.139V17.2697V13.061C4.60722 12.3805 4.63328 11.6867 4.60722 11.0062V10.9798C4.24893 11.1912 3.89063 11.396 3.53234 11.6074C4.03395 11.8321 4.53556 12.0567 5.03717 12.2814C6.24234 12.8165 7.44751 13.3583 8.65268 13.8935C10.1054 14.541 11.5581 15.1885 13.0043 15.8425C14.2681 16.4041 15.5254 16.9723 16.7827 17.5273C17.3951 17.7982 17.9944 18.1088 18.6133 18.3466C18.6263 18.3532 18.6328 18.3532 18.6393 18.3598C18.5221 18.1484 18.4048 17.9436 18.2875 17.7322V19.4169V23.4538V28.3232V32.5319C18.2875 33.219 18.268 33.9061 18.2875 34.5867V34.6131C18.2875 34.9897 18.6133 35.3531 18.9976 35.3333C19.382 35.3134 19.7077 35.0161 19.7077 34.6131V32.9283V28.8914V24.0154V19.8068C19.7077 19.1196 19.7272 18.4325 19.7077 17.752V17.7255C19.7077 17.4943 19.5774 17.2036 19.3559 17.0979C18.8543 16.8732 18.3527 16.6486 17.8511 16.424C16.6459 15.8888 15.4407 15.347 14.2356 14.8119C12.7828 14.1644 11.3301 13.5169 9.88391 12.8628C8.62011 12.3012 7.36283 11.733 6.10554 11.178C5.49318 10.9005 4.88083 10.6296 4.27499 10.3587C4.26847 10.3521 4.25544 10.3521 4.24893 10.3455C4.00789 10.2398 3.76686 10.2068 3.53234 10.3455C3.31736 10.4776 3.18056 10.7155 3.18056 10.9732V12.6514V16.6882V21.5576V25.7663C3.18056 26.4534 3.16102 27.1406 3.18056 27.8211V27.8475C3.18056 28.0788 3.31085 28.3695 3.53234 28.4752C4.03395 28.6998 4.53556 28.9245 5.03717 29.1491C6.24234 29.6843 7.44751 30.226 8.65268 30.7612C10.1054 31.4087 11.5581 32.0562 13.0043 32.7103C14.2681 33.2719 15.5254 33.8401 16.7827 34.3951C17.3951 34.6726 18.0074 34.9434 18.6133 35.2143C18.6198 35.2209 18.6328 35.2209 18.6393 35.2275C18.9781 35.3795 19.421 35.3399 19.6165 34.9699C19.7793 34.6593 19.7207 34.144 19.3624 33.9854Z" fill="#3A3844"></path>
            <path d="M33.7526 27.2262C33.251 27.4509 32.7494 27.6755 32.2478 27.9001C31.0426 28.4353 29.8374 28.9771 28.6322 29.5122C27.1795 30.1597 25.7268 30.8072 24.2806 31.4613C23.0168 32.0229 21.7595 32.5911 20.5022 33.1461C19.8899 33.417 19.271 33.6681 18.6717 33.9654C18.6652 33.972 18.6521 33.972 18.6456 33.9786C19.0039 34.19 19.3622 34.3948 19.7205 34.6063V32.9215V28.8846V24.0152V19.8065C19.7205 19.126 19.7466 18.4323 19.7205 17.7517V17.7253C19.6032 17.9367 19.486 18.1416 19.3687 18.353C19.8703 18.1283 20.3719 17.9037 20.8736 17.6791C22.0787 17.1439 23.2839 16.6021 24.4891 16.067C25.9418 15.4195 27.3945 14.772 28.8407 14.1179C30.1045 13.5563 31.3618 12.9881 32.6191 12.4331C33.2314 12.1622 33.8503 11.9111 34.4496 11.6138C34.4562 11.6072 34.4692 11.6072 34.4757 11.6006C34.1174 11.3892 33.7591 11.1844 33.4008 10.9729V12.6511V16.688V21.5574V25.7661C33.4008 26.4532 33.3813 27.1403 33.4008 27.8208V27.8473C33.4008 28.2239 33.7265 28.5873 34.1109 28.5674C34.4952 28.5476 34.821 28.2503 34.821 27.8473V26.1625V22.1256V17.2562V13.0475C34.821 12.3604 34.8405 11.6733 34.821 10.9928V10.9663C34.821 10.7087 34.6842 10.4708 34.4692 10.3387C34.2281 10.1999 33.9936 10.233 33.7526 10.3387C33.251 10.5633 32.7494 10.7879 32.2478 11.0126C31.0426 11.5478 29.8374 12.0895 28.6322 12.6247C27.1795 13.2722 25.7268 13.9197 24.2806 14.5738C23.0168 15.1354 21.7595 15.7036 20.5022 16.2586C19.8899 16.5294 19.2645 16.7739 18.6717 17.0778C18.6652 17.0844 18.6521 17.0844 18.6456 17.091C18.4241 17.1902 18.2938 17.4809 18.2938 17.7187V19.4035V23.4404V28.3098V32.5184C18.2938 33.2056 18.2743 33.8927 18.2938 34.5732V34.5997C18.2938 34.8573 18.4306 35.0952 18.6456 35.2273C18.8867 35.3661 19.1212 35.333 19.3622 35.2273C19.8638 35.0027 20.3654 34.778 20.867 34.5534C22.0722 34.0182 23.2774 33.4765 24.4826 32.9413C25.9353 32.2938 27.388 31.6463 28.8342 30.9922C30.098 30.4306 31.3553 29.8624 32.6126 29.3074C33.2249 29.0365 33.8503 28.7921 34.4431 28.4882C34.4496 28.4816 34.4627 28.4816 34.4692 28.4749C34.8079 28.323 34.9187 27.7878 34.7232 27.4839C34.5018 27.1271 34.1174 27.0676 33.7526 27.2262Z" fill="#3A3844"></path>
            <path d="M33.752 10.3453C33.2504 10.57 32.7488 10.7946 32.2472 11.0193C31.042 11.5544 29.8369 12.0962 28.6317 12.6314C27.179 13.2789 25.7263 13.9263 24.2801 14.5804C23.0163 15.142 21.759 15.7102 20.5017 16.2652C19.8893 16.5361 19.2705 16.7938 18.6711 17.0845C18.6646 17.0911 18.6516 17.0911 18.6451 17.0977H19.3617C18.86 16.8731 18.3584 16.6484 17.8568 16.4238C16.6516 15.8886 15.4465 15.3469 14.2413 14.8117C12.7886 14.1642 11.3359 13.5167 9.88967 12.8626C8.62586 12.301 7.36858 11.7328 6.11129 11.1778C5.49242 10.9069 4.89309 10.603 4.27422 10.3519C4.26119 10.3453 4.25468 10.3453 4.24817 10.3387L4.07879 11.6601C4.5804 11.4553 5.08201 11.2571 5.58362 11.0589C6.78228 10.5832 7.98745 10.1009 9.18611 9.61857C10.6388 9.03715 12.0915 8.45573 13.5443 7.87431C14.8081 7.36557 16.0653 6.86344 17.3291 6.36131C17.7396 6.19613 18.1565 6.03096 18.5669 5.86578C18.7623 5.7865 18.9708 5.72043 19.1597 5.62793C19.1662 5.62132 19.1792 5.62132 19.1858 5.61471H18.8079C19.3095 5.81953 19.8111 6.01774 20.3128 6.21595C21.5114 6.69826 22.7166 7.17397 23.9152 7.66289C25.368 8.24431 26.8207 8.82573 28.2734 9.40714C29.5372 9.91588 30.7945 10.418 32.0583 10.9202C32.6706 11.1646 33.27 11.4421 33.8888 11.6535C33.8954 11.6601 33.9084 11.6601 33.9149 11.6667C34.2667 11.8055 34.7097 11.5148 34.7943 11.158C34.8855 10.7418 34.6706 10.418 34.2927 10.2661C33.7911 10.0612 33.2895 9.86303 32.7879 9.66482C31.5827 9.1825 30.371 8.69358 29.1659 8.21788C27.7066 7.62985 26.2474 7.04844 24.7882 6.46702C23.5309 5.96489 22.2736 5.45614 21.0163 4.95401C20.417 4.70955 19.8177 4.43866 19.2053 4.22724C18.9578 4.14135 18.7884 4.22063 18.5734 4.31313C18.2607 4.43866 17.948 4.5642 17.6353 4.68973C16.5018 5.14561 15.3618 5.6015 14.2218 6.05738C12.769 6.6388 11.3163 7.22022 9.87012 7.80164C8.56072 8.32359 7.25132 8.85215 5.94192 9.37411C5.22533 9.65821 4.50874 9.94892 3.79867 10.233C3.7661 10.2462 3.73353 10.2594 3.70095 10.2727C3.42735 10.3784 3.23191 10.5634 3.19283 10.8739C3.16026 11.1316 3.27752 11.4817 3.53158 11.5941C4.0397 11.8187 4.54132 12.0433 5.04293 12.268C6.25461 12.8098 7.4663 13.3515 8.67798 13.8933C10.1372 14.5408 11.5899 15.1949 13.0492 15.849C14.2999 16.4106 15.5572 16.9722 16.8145 17.5338C17.4138 17.7981 18.0197 18.0756 18.619 18.3398C18.8926 18.4588 19.1076 18.4588 19.3812 18.3398C19.4463 18.3134 19.5115 18.2804 19.5766 18.2539C19.8893 18.1152 20.202 17.9764 20.5147 17.8377C21.6482 17.329 22.7882 16.8202 23.9283 16.3115C25.381 15.664 26.8272 15.0165 28.2799 14.369C29.5958 13.781 30.9117 13.193 32.2211 12.6049C32.9377 12.2812 33.6543 11.9641 34.3774 11.6469C34.41 11.6337 34.4426 11.6205 34.4751 11.6007C34.8139 11.4487 34.9246 10.9135 34.7292 10.6096C34.5012 10.2462 34.1168 10.1802 33.752 10.3453Z" fill="#3A3844"></path>
            <path d="M26.2031 14.1511V18.2805V18.8619C26.2031 19.2385 26.5288 19.6019 26.9132 19.5821C27.2975 19.5623 27.6233 19.265 27.6233 18.8619V14.7325V14.1511C27.6233 13.7745 27.2975 13.4111 26.9132 13.431C26.5354 13.4442 26.2031 13.7415 26.2031 14.1511Z" fill="#3A3844"></path>
            <path d="M11.6158 8.53505C12.1175 8.74648 12.6191 8.95129 13.1207 9.16272C14.3259 9.66485 15.5245 10.167 16.7297 10.6691C18.1889 11.277 19.6416 11.8848 21.0943 12.4927C22.3516 13.0146 23.6089 13.5432 24.8727 14.0651C25.4851 14.3162 26.0844 14.6069 26.7098 14.8315C26.7163 14.8381 26.7293 14.8381 26.7358 14.8448C27.0811 14.9901 27.5306 14.6862 27.6153 14.336C27.713 13.9198 27.485 13.6026 27.1137 13.4441C26.6121 13.2326 26.1105 13.0278 25.6089 12.8164C24.4037 12.3143 23.205 11.8121 21.9999 11.31C20.5406 10.7022 19.0879 10.0943 17.6352 9.48646C16.3779 8.96451 15.1206 8.43595 13.8568 7.91399C13.2445 7.66292 12.6451 7.37221 12.0197 7.14758C12.0132 7.14097 12.0002 7.14097 11.9937 7.13436C11.6484 6.98901 11.1989 7.29293 11.1142 7.6431C11.023 8.07256 11.2445 8.38309 11.6158 8.53505Z" fill="#3A3844"></path>
            </g>
            <defs>
            <clipPath id="clip0_1219_2503">
            <rect width="31.6667" height="31.1389" fill="white" transform="translate(3.16797 4.19434)"></rect>
            </clipPath>
            </defs>
          </svg>