<svg xmlns="http://www.w3.org/2000/svg" width="26" height="26" viewBox="0 0 26 26" fill="none">
        <g clip-path="url(#clip0_120_1129)">
        <path d="M0.625977 24.3425C0.719551 23.7001 0.818049 23.0626 0.906698 22.4202C1.01505 21.6395 1.11847 20.8587 1.2219 20.0779C1.24652 19.8753 1.32532 19.7024 1.48292 19.564C1.55679 19.4998 1.62082 19.4257 1.68976 19.3565C7.73267 13.2883 13.7805 7.22507 19.8283 1.15689C20.769 0.213066 22.1431 -0.0636591 23.3448 0.450258C24.512 0.949351 25.2901 2.15014 25.2556 3.43987C25.231 4.33923 24.8567 5.0854 24.2263 5.71791C20.9069 9.04355 17.5875 12.3741 14.273 15.7047C11.6579 18.3287 9.02301 20.9427 6.43249 23.5963C5.93999 24.1003 5.41302 24.3474 4.72846 24.4166C3.59572 24.5303 2.47283 24.7131 1.34994 24.8712C0.941173 24.9256 0.793425 24.8564 0.625977 24.4907C0.625977 24.4413 0.625977 24.3919 0.625977 24.3425ZM5.89567 22.7365C5.98924 22.7217 6.03849 22.6377 6.10252 22.5784C11.7022 16.9599 17.3018 11.3414 22.9114 5.72285C23.0788 5.55484 23.0837 5.45601 22.9114 5.288C22.0052 4.39359 21.1138 3.48929 20.2125 2.58993C19.9515 2.32803 19.9515 2.32803 19.6855 2.59487C14.1203 8.18373 8.55514 13.7676 2.98503 19.3515C2.94563 19.3911 2.90623 19.4356 2.8619 19.4751C2.74863 19.569 2.75355 19.653 2.85698 19.7568C3.11307 20.0038 3.3544 20.2558 3.60557 20.5029C3.85674 20.7549 3.85674 20.7549 4.11284 20.498C8.54529 16.0506 12.9777 11.6082 17.4053 7.16083C17.4644 7.10154 17.5235 7.04718 17.5776 6.98788C17.6761 6.86928 17.7648 6.88905 17.8633 6.99282C18.016 7.15589 18.1736 7.30908 18.3312 7.46227C18.5823 7.71428 18.5823 7.71428 18.3262 7.97124C13.8938 12.4186 9.46133 16.866 5.0338 21.3084C4.97963 21.3627 4.93038 21.4171 4.87621 21.4665C4.75801 21.5703 4.75308 21.6592 4.87128 21.7729C5.16678 22.0595 5.45242 22.351 5.743 22.6426C5.78732 22.6871 5.82672 22.7365 5.89567 22.7365ZM2.12809 20.3151C2.03944 20.9674 1.95571 21.5604 1.87199 22.1484C1.80304 22.6377 1.74394 23.1269 1.67007 23.6111C1.64052 23.8137 1.65529 23.9323 1.91139 23.8582C2.06406 23.8137 2.23643 23.8137 2.39896 23.794C3.2559 23.6754 4.11776 23.5617 4.9747 23.4431C5.02888 23.4332 5.10275 23.4382 5.12245 23.3789C5.14708 23.3146 5.0732 23.28 5.0338 23.2455C4.73338 22.944 4.43296 22.6426 4.13254 22.3362C3.47752 21.6741 2.82743 21.0168 2.12809 20.3151ZM24.315 3.42505C24.3248 1.69552 22.5912 0.598504 21.099 1.34467C20.9266 1.43362 20.8724 1.5028 21.0399 1.65599C21.2714 1.86353 21.4831 2.09578 21.6998 2.31321C22.3942 3.00996 23.0936 3.70177 23.7781 4.40347C23.9259 4.55171 23.9998 4.54677 24.0933 4.35405C24.246 4.05262 24.3297 3.73142 24.315 3.42505Z" fill="#3B3A3D"></path>
        <path d="M4.85144 0.0800781C4.95487 0.169025 5.06814 0.253031 5.16664 0.351861C7.30899 2.50142 9.45134 4.65098 11.5937 6.80054C11.8202 7.02785 11.8202 7.03279 11.5937 7.2601C11.1554 7.69989 10.7072 8.13969 10.2738 8.58937C10.1458 8.72279 10.0522 8.72279 9.93399 8.58442C9.81579 8.451 9.68774 8.31758 9.54984 8.20393C9.38732 8.06556 9.41194 7.96179 9.55969 7.82837C9.75176 7.65048 9.92906 7.45282 10.1211 7.27492C10.2246 7.17609 10.2443 7.09703 10.131 6.99326C9.93399 6.80548 9.74191 6.6177 9.55969 6.42004C9.45134 6.30639 9.37747 6.32615 9.27404 6.42992C8.93422 6.77583 8.58948 7.11185 8.24965 7.4627C8.14131 7.57635 8.05758 7.59118 7.94431 7.46764C7.80641 7.31445 7.65866 7.17115 7.51091 7.03279C7.38286 6.91419 7.39271 6.82524 7.51091 6.70665C7.84581 6.38051 8.16593 6.03954 8.50575 5.71835C8.6535 5.57998 8.64365 5.48609 8.50083 5.36256C8.37278 5.2489 8.24965 5.12536 8.13638 4.99688C8.03788 4.88817 7.95416 4.88817 7.85566 4.99688C7.65866 5.20443 7.44689 5.40209 7.24989 5.60963C7.14647 5.71835 7.06274 5.72329 6.96424 5.60963C6.78695 5.40703 6.4619 5.25878 6.4422 5.01665C6.4225 4.77946 6.75247 4.63121 6.92977 4.44343C7.24989 4.10741 7.25482 4.11235 6.91992 3.77633C6.57517 3.43042 6.57517 3.43042 6.2255 3.78127C6.0876 3.91963 5.94478 4.058 5.80688 4.2013C5.71823 4.29025 5.64436 4.29025 5.55571 4.2013C5.40304 4.04317 5.24544 3.88504 5.08784 3.73186C4.97457 3.62809 4.99427 3.54408 5.09769 3.44525C5.29961 3.25253 5.48676 3.04499 5.68868 2.85721C5.80196 2.75344 5.82166 2.67437 5.69853 2.55578C5.39319 2.25929 5.09276 1.95785 4.79727 1.65148C4.68399 1.53288 4.6052 1.54277 4.49192 1.65642C3.75318 2.39765 2.99966 3.15864 2.24122 3.90481C2.06392 4.07776 2.20675 4.15683 2.30525 4.25566C4.27522 6.23226 6.2452 8.20887 8.21026 10.1805C8.44665 10.4177 8.44665 10.4177 8.21518 10.6549C8.05758 10.813 7.89998 10.9662 7.74731 11.1244C7.65374 11.2281 7.57001 11.2232 7.48136 11.1244C7.44689 11.0898 7.41241 11.0552 7.37794 11.0206C5.25529 8.89574 3.13756 6.76595 1.01491 4.6411C0.911487 4.53732 0.803139 4.43355 0.739114 4.29519C0.606141 4.01846 0.709565 3.78621 0.901637 3.58361C1.15773 3.31677 1.41876 3.05981 1.67978 2.79791C2.45792 2.01715 3.23606 1.24133 4.00928 0.460575C4.14718 0.322212 4.29492 0.193733 4.45745 0.0800781C4.59042 0.0800781 4.72339 0.0800781 4.85144 0.0800781Z" fill="#3B3A3D"></path>
        <path d="M21.6407 25.0497C21.3944 25.0595 21.2319 24.9261 21.0792 24.7729C19.8628 23.5524 18.6463 22.3318 17.4298 21.1113C16.3857 20.0637 15.3515 19.0161 14.2976 17.9784C14.1153 17.7955 14.1153 17.6917 14.3074 17.5336C14.4699 17.4002 14.6177 17.2421 14.7605 17.0839C14.8738 16.9604 14.9674 16.9406 15.0806 17.079C15.1447 17.1531 15.2185 17.2174 15.2875 17.2915C17.3313 19.3422 19.3801 21.3929 21.419 23.4486C21.5865 23.6166 21.6751 23.6166 21.8426 23.4486C22.5567 22.7123 23.2856 21.9909 24.0145 21.2694C24.1524 21.136 24.1524 21.052 24.0145 20.9136C22.1381 19.0408 20.2715 17.163 18.4 15.2852C18.2621 15.1469 18.1735 15.1419 18.0405 15.2852C17.7253 15.6163 17.3904 15.9326 17.0752 16.2686C16.9373 16.4119 16.8438 16.407 16.7157 16.2636C16.5877 16.1154 16.4448 15.982 16.302 15.8436C16.1986 15.7448 16.1937 15.6608 16.2971 15.5521C16.9226 14.9245 17.548 14.2969 18.1735 13.6694C18.272 13.5705 18.3459 13.5755 18.4394 13.6743C18.5576 13.8028 18.6808 13.9214 18.8039 14.04C20.9955 16.234 23.1822 18.433 25.3738 20.627C25.6643 20.9186 25.6791 21.2447 25.3885 21.5362C24.2854 22.6481 23.1772 23.755 22.0741 24.8668C21.946 24.9805 21.8081 25.0595 21.6407 25.0497Z" fill="#3B3A3D"></path>
        <path d="M21.1977 19.3467C21.9118 19.3516 22.4831 19.9199 22.4831 20.6265C22.4831 21.3529 21.8921 21.941 21.1731 21.936C20.4639 21.9311 19.8877 21.3381 19.8877 20.6216C19.8877 19.91 20.4688 19.3467 21.1977 19.3467ZM21.178 19.9594C20.7939 19.9644 20.4885 20.2707 20.4935 20.6414C20.4984 21.0268 20.7988 21.3233 21.183 21.3233C21.5671 21.3233 21.8527 21.0317 21.8527 20.6364C21.8527 20.2362 21.5769 19.9545 21.178 19.9594Z" fill="#3B3A3D"></path>
        </g>
        <defs>
        <clipPath id="clip0_120_1129">
        <rect width="24.9695" height="24.9695" fill="white" transform="translate(0.625977 0.0810547)"></rect>
        </clipPath>
        </defs>
        </svg>