<svg xmlns="http://www.w3.org/2000/svg" width="42" height="42" viewBox="0 0 42 42" fill="none">
          <g clip-path="url(#clip0_121_1465)">
          <path d="M20.9744 0C32.5233 0.0341741 41.5001 9.08177 41.9787 20.0175C42.5127 32.2134 32.9249 41.7351 21.5341 41.9915C9.6519 42.2606 0.371736 32.9225 0.0128348 21.7305C-0.375975 9.64992 9.25882 0.0256306 20.9744 0ZM21.0086 0.679211C9.67326 0.721928 0.615276 9.81224 0.670821 21.141C0.730637 32.1707 9.6989 41.466 21.2991 41.3208C32.2114 41.1884 41.3506 32.3287 41.3207 20.9188C41.2993 9.85923 32.361 0.713385 21.0086 0.679211Z" fill="#3A3844"></path>
          <path d="M20.9999 33.3965C13.9628 33.3666 8.49385 27.6339 8.60921 20.7948C8.72885 13.9002 14.4072 8.47933 21.2391 8.61175C28.0412 8.74418 33.4845 14.306 33.3905 21.1622C33.2965 28.0739 27.6908 33.388 20.9999 33.3965ZM32.7154 20.9016C32.6684 14.4427 27.3874 9.2397 20.9187 9.27815C14.4713 9.31659 9.23729 14.6221 9.28002 21.0938C9.31847 27.5314 14.6208 32.7643 21.0597 32.7173C27.5712 32.6703 32.7624 27.4118 32.7154 20.9016Z" fill="#3A3844"></path>
          <path d="M7.27197 31.402C7.7676 30.962 8.23332 30.5476 8.70331 30.1333C9.02803 29.8471 9.36129 29.5651 9.67319 29.2661C9.80564 29.1422 9.87828 29.1636 9.97655 29.2917C10.1218 29.4754 10.2799 29.6463 10.4465 29.8385C9.9851 30.4195 9.5322 30.9876 9.07502 31.5558C9.08357 31.5643 9.08784 31.5686 9.09639 31.5771C9.66465 31.2439 10.2372 30.9193 10.8012 30.5733C10.9635 30.475 11.0575 30.4878 11.1686 30.6373C11.2968 30.8082 11.4463 30.9577 11.6044 31.1414C10.7542 31.8975 9.90819 32.6451 9.04939 33.4054C8.90839 33.2474 8.78449 33.1064 8.64776 32.9484C9.2972 32.376 9.93382 31.8164 10.5662 31.261C10.5619 31.2525 10.5576 31.2439 10.5534 31.2354C10.1731 31.4661 9.78855 31.701 9.40829 31.9317C9.10493 32.1154 8.79303 32.2905 8.49395 32.4827C8.36577 32.5639 8.28886 32.5511 8.18632 32.4358C7.95132 32.1538 7.94278 32.1581 8.16923 31.8762C8.62213 31.3166 9.0793 30.7655 9.51083 30.1845C8.89985 30.7313 8.29313 31.2738 7.66505 31.8377C7.5326 31.6882 7.41297 31.5558 7.27197 31.402Z" fill="#3A3844"></path>
          <path d="M15.7876 4.12246C16.0781 4.05411 16.3388 3.98149 16.5994 3.93023C16.6421 3.92169 16.7276 4.00285 16.7532 4.05839C17.0053 4.63935 17.2531 5.22031 17.5009 5.80554C17.518 5.83971 17.5351 5.87389 17.5522 5.91233C17.5522 5.60049 17.5565 5.2972 17.5522 4.99817C17.5479 4.61372 17.5266 4.22926 17.5266 3.8448C17.5266 3.79354 17.5907 3.7081 17.6419 3.69101C17.8299 3.63121 18.0307 3.60131 18.2187 3.54577C18.3555 3.50733 18.411 3.55005 18.4409 3.68247C18.6118 4.43003 18.787 5.17759 18.9579 5.92515C19.0177 6.17291 19.0733 6.42494 19.1373 6.67271C19.1673 6.78377 19.1459 6.84785 19.022 6.86921C18.8853 6.89484 18.7485 6.92901 18.5776 6.96746C18.3811 6.11738 18.1888 5.28438 17.9923 4.44712C17.9837 4.44712 17.9752 4.44712 17.9666 4.44712C17.9837 4.78886 18.0051 5.12633 18.0222 5.46807C18.0435 5.93796 18.0606 6.40786 18.0948 6.87348C18.1076 7.03581 18.0478 7.10843 17.894 7.12979C17.8385 7.13833 17.7829 7.15114 17.7274 7.16823C17.5778 7.22376 17.5137 7.15969 17.4582 7.02299C17.189 6.3566 16.9113 5.69447 16.6379 5.03235C16.6208 4.9939 16.6037 4.95546 16.5567 4.92555C16.7447 5.70302 16.9284 6.48475 17.1207 7.29638C16.954 7.3391 16.8002 7.39036 16.6421 7.40745C16.6037 7.41172 16.5268 7.30493 16.5097 7.24085C16.3174 6.43776 16.1294 5.63467 15.9414 4.83158C15.8987 4.60944 15.8474 4.38304 15.7876 4.12246Z" fill="#3A3844"></path>
          <path d="M29.6052 9.79981C29.4472 9.66312 29.3147 9.54778 29.1694 9.4239C29.9171 8.561 30.652 7.71092 31.3997 6.84375C31.5707 6.98899 31.733 7.11287 31.8697 7.26238C31.9082 7.3051 31.8911 7.42471 31.8655 7.49306C31.6347 8.12955 31.3997 8.76177 31.1648 9.39399C31.1562 9.41962 31.1477 9.44098 31.1605 9.47943C31.6219 8.94119 32.0834 8.40722 32.5662 7.84761C32.7114 7.97577 32.8396 8.09111 32.9934 8.22353C32.2457 9.08643 31.5108 9.93224 30.7589 10.7994C30.605 10.667 30.4512 10.5516 30.323 10.4107C30.2846 10.368 30.2846 10.2526 30.3102 10.1843C30.5452 9.55632 30.7845 8.93264 31.0238 8.30897C31.0451 8.25343 31.0579 8.19363 31.0408 8.11246C30.5751 8.67634 30.0966 9.2274 29.6052 9.79981Z" fill="#3A3844"></path>
          <path d="M33.6639 15.1361C33.5656 14.9481 33.4588 14.7858 33.399 14.6063C33.3776 14.5422 33.4417 14.4269 33.5015 14.3628C33.9758 13.8415 34.4628 13.3331 34.9414 12.8161C34.967 12.7862 34.9926 12.7563 35.0525 12.6879C34.403 13.0212 33.8049 13.3331 33.211 13.6407C32.9546 13.7732 32.9546 13.7774 32.8264 13.5125C32.788 13.4356 32.7538 13.363 32.6982 13.2519C33.7066 12.7349 34.7107 12.2179 35.7318 11.6924C35.8344 11.8932 35.9369 12.0726 36.0138 12.2606C36.0309 12.3076 35.9796 12.4016 35.9369 12.4529C35.484 12.9571 35.0268 13.4527 34.5739 13.9526C34.5483 13.9782 34.5312 14.0082 34.4714 14.0765C34.9542 13.8244 35.3943 13.598 35.8301 13.3715C35.9754 13.2946 36.1249 13.2263 36.2616 13.1408C36.3941 13.0596 36.4667 13.0895 36.5222 13.2263C36.5692 13.3373 36.6248 13.4399 36.6846 13.5681C35.6763 14.1021 34.6807 14.6149 33.6639 15.1361Z" fill="#3A3844"></path>
          <path d="M22.5251 36.9213C22.4824 36.2163 22.4482 35.5626 22.3927 34.9132C22.3713 34.6782 22.5038 34.6782 22.6576 34.6739C22.8114 34.6697 22.9567 34.6227 22.9695 34.8833C23.0208 35.9343 23.0934 36.9811 23.1618 38.0664C22.9567 38.0792 22.7601 38.1048 22.5636 38.092C22.508 38.0878 22.4311 37.998 22.4055 37.9339C22.115 37.2845 21.8372 36.6308 21.551 35.9813C21.5382 35.9514 21.5211 35.9215 21.4826 35.8959C21.5168 36.4001 21.5467 36.9085 21.5809 37.4127C21.5937 37.6178 21.6065 37.8229 21.6236 38.0279C21.6322 38.139 21.5852 38.1818 21.4783 38.1818C20.9955 38.1903 21.0639 38.2587 21.034 37.8058C20.9784 36.8701 20.9229 35.9343 20.8545 34.9986C20.8417 34.8406 20.8887 34.7893 21.0468 34.7765C21.5382 34.738 21.5424 34.7295 21.739 35.1653C21.9996 35.7378 22.2517 36.3103 22.5251 36.9213Z" fill="#3A3844"></path>
          <path d="M28.1865 35.2506C27.8789 34.597 27.5712 33.9477 27.2508 33.2685C27.426 33.1874 27.5841 33.1105 27.7592 33.0293C27.8276 33.1745 27.8917 33.2984 27.9515 33.4266C28.3403 34.251 28.7206 35.0755 29.1137 35.8957C29.1948 36.0665 29.1863 36.1477 28.994 36.2289C28.5839 36.3954 28.5881 36.4083 28.272 36.0879C27.8361 35.6479 27.4003 35.2122 26.9645 34.7722C26.9303 34.738 26.8962 34.7081 26.8193 34.6398C27.1653 35.3745 27.4858 36.058 27.8233 36.7671C27.6439 36.8483 27.4858 36.9209 27.3021 37.0063C26.8193 35.9725 26.345 34.9559 25.8579 33.9178C26.0587 33.8238 26.2382 33.7256 26.4262 33.6572C26.4732 33.6402 26.5714 33.6914 26.6184 33.7384C27.1226 34.2596 27.6225 34.7807 28.1224 35.3061C28.1438 35.2891 28.1651 35.272 28.1865 35.2506Z" fill="#3A3844"></path>
          <path d="M6.47286 24.5802C7.1992 24.5716 7.7931 25.157 7.80165 25.8876C7.81019 26.6139 7.22484 27.2164 6.49849 27.2249C5.74651 27.2335 5.14834 26.6609 5.14407 25.9303C5.13979 25.1655 5.70805 24.5887 6.47286 24.5802ZM6.16523 26.5798C6.5754 26.191 6.96421 25.8192 7.35302 25.4475C7.28893 25.3578 7.23766 25.2852 7.17784 25.204C6.82321 25.5372 6.50704 25.8321 6.1695 26.1482C6.04132 26.0072 5.92169 25.8748 5.78923 25.7295C5.70378 25.8064 5.63969 25.8662 5.56706 25.9346C5.78069 26.1653 5.96441 26.3661 6.16523 26.5798Z" fill="#3A3844"></path>
          <path d="M37.3384 25.8997C37.3341 26.6389 36.7573 27.22 36.0267 27.22C35.2662 27.22 34.6808 26.6346 34.6851 25.8826C34.6894 25.1435 35.2833 24.5709 36.0352 24.5752C36.7659 24.5838 37.3427 25.1648 37.3384 25.8997ZM35.7062 26.5791C36.1121 26.1946 36.5052 25.8228 36.8983 25.4511C36.8299 25.3699 36.7744 25.3016 36.706 25.2204C36.3642 25.5366 36.0481 25.8356 35.6977 26.1604C35.5652 26.0108 35.4584 25.8826 35.3388 25.7459C35.2576 25.8186 35.1978 25.8784 35.1209 25.951C35.3174 26.1561 35.5012 26.3526 35.7062 26.5791Z" fill="#3A3844"></path>
          <path d="M7.32767 19.2923C6.36633 19.1428 5.43916 19.006 4.512 18.8565C4.33255 18.8266 4.08901 18.8309 4.00356 18.7155C3.92665 18.6172 4.02492 18.378 4.04628 18.2028C4.07619 18.0062 4.09756 17.8054 4.14028 17.6132C4.22146 17.2414 4.42228 16.968 4.81536 16.9039C5.17426 16.8441 5.66561 16.9552 5.85361 17.3312C5.86215 17.3483 5.87925 17.3653 5.90061 17.3953C6.27233 17.0364 6.71241 17.2158 7.1354 17.25C7.19094 17.2543 7.24649 17.2628 7.30631 17.2756C7.41312 17.297 7.60966 17.3226 7.60966 17.344C7.60966 17.5106 7.57548 17.6815 7.53703 17.8439C7.52848 17.8738 7.42594 17.8994 7.37039 17.8952C7.12258 17.8738 6.87477 17.8439 6.62696 17.8097C6.23815 17.7584 6.09288 17.8695 6.02879 18.2583C6.00315 18.4121 6.06297 18.4591 6.20397 18.4762C6.55432 18.5232 6.90468 18.5916 7.25931 18.6386C7.39603 18.6557 7.4473 18.707 7.40885 18.8437C7.37039 18.9889 7.3533 19.1299 7.32767 19.2923ZM4.57182 18.2284C4.84954 18.2711 5.11872 18.3139 5.39216 18.3523C5.42207 18.3566 5.48616 18.3139 5.48616 18.2925C5.48616 18.1002 5.53316 17.8823 5.45625 17.72C5.36226 17.5234 5.11444 17.5106 4.90508 17.5491C4.69573 17.5875 4.64018 17.7627 4.606 17.9422C4.59318 18.0319 4.58891 18.1131 4.57182 18.2284Z" fill="#3A3844"></path>
          <path d="M10.1858 12.0262C9.32697 11.2486 8.49808 10.5009 7.64355 9.72752C7.92555 9.42844 8.16909 9.13363 8.45108 8.88154C8.75871 8.60809 9.13471 8.56537 9.50642 8.74055C10.1302 9.03109 10.6173 9.47971 10.9591 10.0736C11.1856 10.4667 11.1557 10.8726 10.8737 11.2315C10.6686 11.4964 10.4336 11.7442 10.1858 12.0262ZM10.2071 11.1802C10.566 10.8854 10.6301 10.6376 10.3567 10.3129C10.0875 9.98816 9.77133 9.69762 9.44233 9.43271C9.07062 9.13363 8.75444 9.21908 8.49381 9.6378C9.06207 10.1505 9.6346 10.6632 10.2071 11.1802Z" fill="#3A3844"></path>
          <path d="M30.2757 35.4909C29.6049 34.5638 28.9427 33.658 28.2505 32.7009C28.6478 32.4531 29.0153 32.1882 29.4169 31.9874C29.716 31.8378 30.0407 31.9361 30.3014 32.1369C30.8568 32.5642 31.2541 33.1153 31.4507 33.7904C31.5789 34.2305 31.4336 34.6065 31.079 34.8927C30.8312 35.0978 30.5663 35.2773 30.2757 35.4909ZM30.4723 34.6706C30.8696 34.4655 30.9722 34.2262 30.8098 33.8545C30.6175 33.423 30.3526 33.0342 29.998 32.7137C29.7032 32.4445 29.4041 32.4787 29.1178 32.8077C29.5665 33.423 30.0151 34.0425 30.4723 34.6706Z" fill="#3A3844"></path>
          <path d="M24.7814 4.85743C24.6788 5.28896 24.6104 5.73759 24.4695 6.15631C24.2473 6.80575 23.7944 7.04074 23.1193 6.92965C22.9099 6.89547 22.7006 6.85275 22.4869 6.83138C22.346 6.81429 22.2947 6.77157 22.3203 6.61348C22.4741 5.73759 22.6194 4.8617 22.7647 3.98581C22.786 3.85336 22.8202 3.72091 22.8288 3.58845C22.8416 3.44746 22.9142 3.42609 23.0296 3.45173C23.2389 3.49446 23.4483 3.52864 23.6577 3.56709C24.4353 3.70381 24.7301 4.05844 24.7258 4.84888C24.7429 4.85315 24.76 4.85315 24.7814 4.85743ZM23.0125 6.35712C23.4526 6.49812 23.6961 6.42548 23.82 6.02813C23.9567 5.60086 24.0294 5.14796 24.0678 4.69934C24.102 4.27207 23.8585 4.07553 23.3927 4.09262C23.2646 4.84034 23.1407 5.59659 23.0125 6.35712Z" fill="#3A3844"></path>
          <path d="M37.1846 14.8057C37.2829 15.1902 37.3897 15.5363 37.4623 15.8909C37.552 16.3353 37.3854 16.6984 37.0051 16.9334C36.4155 17.2966 35.7661 17.4718 35.0739 17.4291C34.7321 17.4077 34.4373 17.2539 34.2963 16.942C34.1254 16.566 34.01 16.1601 33.8647 15.7499C34.9927 15.4252 36.0694 15.1218 37.1846 14.8057ZM36.8257 15.6004C36.8086 15.5961 36.783 15.5876 36.7659 15.5961C36.0737 15.7884 35.3815 15.9806 34.6936 16.1815C34.6509 16.1943 34.6039 16.3011 34.6125 16.3524C34.6723 16.6771 34.9073 16.8651 35.2704 16.801C35.702 16.7241 36.1292 16.613 36.5394 16.4592C36.941 16.3054 37.0137 16.0105 36.8257 15.6004Z" fill="#3A3844"></path>
          <path d="M5.96024 13.9641C6.60541 14.0453 7.30185 14.2589 7.90002 14.7332C8.25892 15.0152 8.34437 15.4339 8.16919 15.8697C7.9812 16.3354 7.6522 16.5576 7.15658 16.5191C6.48577 16.4636 5.86197 16.2585 5.30653 15.8782C4.85363 15.5706 4.70409 15.1647 4.84508 14.7033C4.9989 14.1991 5.33216 13.9555 5.96024 13.9641ZM7.1224 15.8782C7.47703 15.891 7.6052 15.827 7.66929 15.6646C7.73766 15.4851 7.67357 15.3313 7.45994 15.1775C7.3873 15.122 7.31039 15.0664 7.22494 15.0322C6.8404 14.887 6.45587 14.7417 6.06278 14.6178C5.9346 14.5793 5.78079 14.5836 5.64407 14.605C5.36634 14.6477 5.2638 14.9639 5.4518 15.1775C5.50307 15.2373 5.56288 15.2929 5.62697 15.3313C6.11833 15.6347 6.65241 15.8099 7.1224 15.8782Z" fill="#3A3844"></path>
          <path d="M14.0399 34.4264C14.3432 34.2299 14.6423 34.0334 14.9457 33.8369C15.4156 33.5379 15.4797 33.5421 15.9668 33.8967C15.9241 33.9351 15.8856 33.9736 15.8429 33.9992C15.4968 34.2 15.155 34.4008 14.8047 34.593C14.6893 34.6571 14.6295 34.734 14.6209 34.8749C14.591 35.4772 14.5526 36.0838 14.5141 36.6861C14.5098 36.763 14.5013 36.8357 14.4928 36.9425C14.2919 36.8442 14.1168 36.7673 13.9544 36.6733C13.9117 36.6477 13.886 36.5537 13.8903 36.4939C13.916 36.0838 13.9501 35.6695 13.98 35.2594C13.9843 35.1825 13.98 35.1056 13.98 35.0073C13.7664 35.1056 13.5613 35.1697 13.4631 35.4003C13.3477 35.6737 13.1981 35.9343 13.0529 36.2248C12.8606 36.1308 12.6854 36.0454 12.4932 35.9514C13.0016 34.9262 13.5015 33.9266 14.0142 32.9014C14.1809 32.9783 14.3304 33.0381 14.4671 33.1235C14.5056 33.1491 14.5227 33.273 14.497 33.3243C14.3688 33.6019 14.2279 33.8753 14.0911 34.1487C14.0527 34.2213 14.0228 34.3025 13.9886 34.3751C14.0099 34.3965 14.027 34.4093 14.0399 34.4264Z" fill="#3A3844"></path>
          <path d="M6.13531 12.0129C6.79757 12.4102 7.42992 12.7905 8.06654 13.1708C8.15199 13.222 8.23744 13.2733 8.33144 13.3075C8.57498 13.4015 8.74589 13.3502 8.86552 13.1537C8.98943 12.9443 8.97234 12.7734 8.75016 12.6153C8.3998 12.3718 8.02809 12.1581 7.66491 11.936C7.31028 11.7181 6.95138 11.5002 6.57112 11.2737C6.68648 11.0857 6.78475 10.9191 6.89584 10.7354C7.24192 10.9447 7.56664 11.1413 7.89563 11.3378C8.28017 11.5685 8.66898 11.7907 9.04497 12.0342C9.36969 12.2436 9.58332 12.5427 9.50642 12.9486C9.42096 13.3801 9.21161 13.7518 8.78434 13.9441C8.51089 14.0637 8.24172 13.9996 8.00672 13.8629C7.30601 13.457 6.60957 13.0383 5.9174 12.6153C5.87895 12.5939 5.84904 12.4914 5.8704 12.453C5.94304 12.3077 6.03704 12.1752 6.13531 12.0129Z" fill="#3A3844"></path>
          <path d="M35.2405 30.6333C35.2362 30.6504 35.2362 30.6589 35.2362 30.6632C34.92 31.1802 34.92 31.1802 34.386 30.911C34.0954 30.7657 34.0954 30.7657 33.8903 31.0221C33.6212 31.3554 33.6212 31.3554 33.9074 31.6886C34.2065 32.039 34.2065 32.039 33.9074 32.3893C33.8775 32.4278 33.8519 32.4705 33.8091 32.5261C33.4332 32.0646 33.0871 31.6331 32.7367 31.2058C32.3949 30.7871 32.0616 30.3598 31.7156 29.9454C31.6173 29.8258 31.6258 29.7531 31.7156 29.6378C32.0787 29.1592 32.0787 29.155 32.6256 29.407C33.4716 29.7958 34.3176 30.1889 35.1636 30.582C35.1892 30.5906 35.2148 30.6162 35.2405 30.6333ZM33.5784 30.5094C33.1896 30.3128 32.8264 30.1291 32.4633 29.9411C32.4547 29.9539 32.4419 29.9668 32.4334 29.9796C32.7025 30.2872 32.9674 30.5991 33.2494 30.9238C33.3691 30.7786 33.4631 30.6589 33.5784 30.5094Z" fill="#3A3844"></path>
          <path d="M11.7111 35.4902C11.5488 35.3749 11.395 35.2723 11.2582 35.1527C11.2241 35.1228 11.2326 35.0202 11.254 34.969C11.3437 34.7553 11.4505 34.546 11.5573 34.3238C11.3565 34.1743 11.1642 34.029 10.9506 33.8709C10.7754 34.029 10.6003 34.1785 10.4336 34.3409C10.3482 34.4221 10.2755 34.4434 10.1773 34.3623C10.0662 34.2683 9.94227 34.1828 9.80127 34.076C9.90809 33.982 9.99354 33.9051 10.0833 33.8282C10.8267 33.1958 11.5744 32.572 12.3093 31.9354C12.4332 31.8286 12.5144 31.8371 12.6383 31.9269C13.1168 32.2815 13.1211 32.2772 12.8861 32.8198C12.5229 33.653 12.1598 34.4904 11.7966 35.3236C11.7752 35.3663 11.7496 35.4176 11.7111 35.4902ZM12.3563 32.6447C12.3478 32.6361 12.3349 32.6276 12.3264 32.6233C12.0145 32.9053 11.7069 33.1916 11.3779 33.4906C11.5274 33.6017 11.6556 33.6957 11.8009 33.8068C11.9931 33.4052 12.1769 33.0249 12.3563 32.6447Z" fill="#3A3844"></path>
          <path d="M34.7152 21.7741C34.6981 21.7442 34.6896 21.74 34.6896 21.7314C34.6212 21.1461 34.6255 21.1418 35.198 21.0393C35.5398 20.9794 35.5398 20.9794 35.5398 20.6248C35.5441 20.2232 35.5441 20.2232 35.1596 20.1335C35.151 20.1335 35.1468 20.1292 35.1382 20.1292C34.6383 20.0138 34.6169 19.9796 34.7366 19.4199C34.9887 19.4797 35.245 19.5353 35.4971 19.5951C36.3132 19.7916 37.1293 19.9925 37.9453 20.1847C38.065 20.2146 38.1034 20.2659 38.1077 20.3898C38.1248 21.0222 38.1291 21.0264 37.5223 21.1674C36.6294 21.3725 35.7321 21.5691 34.8391 21.7699C34.7964 21.7741 34.7537 21.7741 34.7152 21.7741ZM37.3813 20.6291C37.3771 20.6163 37.3728 20.6077 37.3728 20.5949C36.9583 20.5094 36.5439 20.424 36.1166 20.3385C36.1166 20.5137 36.1166 20.6718 36.1166 20.8598C36.5567 20.7786 36.9669 20.706 37.3813 20.6291Z" fill="#3A3844"></path>
          <path d="M21.9188 6.75906C21.7308 6.75906 21.5556 6.76761 21.3804 6.75479C21.3334 6.75052 21.2651 6.68216 21.2523 6.63088C21.1967 6.44716 21.1754 6.25489 21.1155 6.07117C21.0942 6.01135 21.0087 5.9729 20.9532 5.9259C20.9489 5.92163 20.9404 5.9259 20.9318 5.9259C20.3507 5.89599 20.3507 5.89599 20.2354 6.46425C20.1713 6.7847 20.1713 6.7847 19.838 6.79325C19.7526 6.79752 19.6714 6.79325 19.5518 6.79325C19.6116 6.48562 19.6671 6.20362 19.7269 5.92163C19.8936 5.13119 20.0645 4.33648 20.2268 3.54604C20.2525 3.41786 20.2995 3.36659 20.4319 3.36232C21.0771 3.33241 21.0728 3.33241 21.2309 3.95622C21.4531 4.84492 21.6838 5.72936 21.9102 6.61807C21.9102 6.65225 21.9102 6.6907 21.9188 6.75906ZM20.9617 5.35764C20.8677 4.92183 20.778 4.51593 20.6883 4.11003C20.59 4.48175 20.5216 4.8492 20.4576 5.21664C20.449 5.2551 20.4576 5.29782 20.4576 5.35764C20.6199 5.35764 20.7737 5.35764 20.9617 5.35764Z" fill="#3A3844"></path>
          <path d="M27.2082 5.96356C27.1441 6.14301 27.0886 6.29683 27.0202 6.47628C26.7895 6.3951 26.5716 6.30964 26.3537 6.24128C25.9649 6.11738 26.0162 6.05329 25.8709 6.46773C25.8111 6.64291 25.747 6.81382 25.6743 7.00608C26.0589 7.15135 26.4263 7.28808 26.7852 7.4248C26.781 7.46753 26.7852 7.48035 26.781 7.49316C26.5972 7.92897 26.5972 7.92897 26.1614 7.77516C25.747 7.62562 25.3368 7.4718 24.9053 7.31371C24.948 7.18981 24.9779 7.08726 25.0164 6.98045C25.3411 6.09174 25.6658 5.20303 25.982 4.31432C26.0418 4.14342 26.1059 4.11351 26.2725 4.1776C26.7425 4.36132 27.2168 4.52368 27.7124 4.70741C27.6483 4.88686 27.597 5.04067 27.5287 5.22867C27.2253 5.12185 26.939 5.02785 26.6571 4.91677C26.5032 4.85268 26.4349 4.88258 26.3793 5.04494C26.1828 5.60893 26.1742 5.60466 26.7382 5.79693C26.8878 5.84393 27.033 5.89947 27.2082 5.96356Z" fill="#3A3844"></path>
          <path d="M16.0563 36.8706C16.4494 36.9902 16.8211 37.1013 17.2185 37.221C17.1501 37.3748 17.0989 37.5158 17.0262 37.6397C17.0049 37.6739 16.9151 37.6952 16.8681 37.6824C16.3896 37.5457 15.9111 37.4047 15.4368 37.2551C15.3898 37.2381 15.3257 37.1398 15.3343 37.0971C15.6376 36.0588 15.9538 35.0291 16.2657 33.9951C16.2657 33.9908 16.2742 33.9866 16.3042 33.9609C16.6374 34.0592 16.9921 34.1618 17.3424 34.2686C17.4321 34.2942 17.5219 34.3198 17.6073 34.3497C17.9876 34.4737 17.9662 34.3839 17.8551 34.8026C17.8124 34.9736 17.7355 34.9778 17.5945 34.9351C17.304 34.8411 17.0134 34.7599 16.7058 34.6659C16.6289 34.9308 16.5562 35.1701 16.4793 35.4265C16.8254 35.5333 17.1544 35.6315 17.509 35.7426C17.4578 35.9178 17.4108 36.0802 17.3595 36.2639C17.0091 36.1656 16.6801 36.0716 16.3212 35.9691C16.2401 36.2682 16.1503 36.563 16.0563 36.8706Z" fill="#3A3844"></path>
          <path d="M5.63583 21.8719C5.14021 21.8719 4.64031 21.8676 4.14468 21.8762C4.00369 21.8804 3.93532 21.842 3.93532 21.6924C3.93532 21.3592 3.90541 21.0216 3.91823 20.6884C3.93532 20.1628 4.40531 19.7911 4.98639 19.821C5.57174 19.8509 5.88364 20.15 5.93919 20.7354C5.98192 21.1797 5.98192 21.1797 6.43909 21.1669C6.68263 21.1626 6.92189 21.1541 7.16543 21.1413C7.28934 21.137 7.34916 21.1712 7.34489 21.3079C7.33634 21.8762 7.42607 21.7693 6.90053 21.7822C6.48181 21.7907 6.0631 21.7822 5.6401 21.7822C5.63583 21.8163 5.63583 21.842 5.63583 21.8719ZM4.44377 21.2096C4.7044 21.2096 4.94367 21.2096 5.18293 21.2096C5.2342 21.2096 5.28548 21.2139 5.33247 21.2054C5.37093 21.1968 5.41793 21.1754 5.43502 21.1455C5.52474 20.9832 5.3752 20.573 5.20002 20.5004C4.7813 20.3252 4.43522 20.5516 4.43949 21.0003C4.43095 21.0601 4.43949 21.1242 4.44377 21.2096Z" fill="#3A3844"></path>
          <path d="M13.2664 6.89912C13.181 6.45477 13.1126 6.04032 13.0186 5.63442C12.9759 5.43361 12.9844 5.29261 13.2023 5.21571C13.3134 5.17725 13.4117 5.10034 13.5527 5.02344C13.5869 5.28407 13.6211 5.51052 13.651 5.73697C13.7108 6.2155 13.7663 6.69831 13.8347 7.17685C13.8518 7.29221 13.8988 7.40757 13.9543 7.51438C14.091 7.76647 14.2278 8.01428 14.3816 8.25355C14.4713 8.39455 14.4414 8.46718 14.3004 8.53554C14.1808 8.59109 14.0611 8.65945 13.9201 8.73636C13.7535 8.44582 13.5997 8.15955 13.4245 7.8861C13.3262 7.73656 13.2066 7.59129 13.0656 7.47593C12.5785 7.08285 12.0786 6.70258 11.5873 6.31805C11.5574 6.29241 11.5317 6.25823 11.4805 6.20696C11.6685 6.10014 11.8308 5.98905 12.0103 5.91215C12.0615 5.89078 12.1684 5.94633 12.2239 5.9976C12.57 6.27959 12.9033 6.57868 13.2664 6.89912Z" fill="#3A3844"></path>
          <path d="M13.104 8.57843C13.1894 8.71516 13.2749 8.82625 13.3347 8.95015C13.3561 8.99288 13.3219 9.08688 13.2792 9.12106C12.9032 9.42442 12.5186 9.71496 12.1384 10.014C12.0444 10.0909 11.9931 10.0568 11.929 9.97559C11.2924 9.15524 10.6558 8.33917 10.0234 7.51455C9.99351 7.47609 9.99778 7.35646 10.032 7.32655C10.1473 7.21546 10.284 7.12574 10.4293 7.01465C11.0189 7.77518 11.6 8.51862 12.1854 9.2706C12.5015 9.03561 12.7964 8.81343 13.104 8.57843Z" fill="#3A3844"></path>
          <path d="M32.7197 33.5507C31.9293 32.7346 31.1516 31.927 30.374 31.1238C30.5193 30.9657 30.656 30.8162 30.7586 30.7051C31.079 31.0042 31.3952 31.2819 31.69 31.5767C32.1472 32.0339 32.5873 32.5081 33.0444 32.9653C33.1598 33.0807 33.1512 33.1618 33.0359 33.2601C32.9291 33.3456 32.8351 33.4438 32.7197 33.5507Z" fill="#3A3844"></path>
          <path d="M32.2839 12.6959C32.1558 12.5165 32.0447 12.3541 31.9165 12.1789C32.8394 11.5124 33.7452 10.8544 34.6766 10.1836C34.7834 10.3331 34.886 10.4656 34.9843 10.6023C35.0697 10.7219 34.9586 10.7647 34.886 10.8159C34.2365 11.2859 33.5871 11.7559 32.9334 12.2259C32.724 12.3797 32.5104 12.5335 32.2839 12.6959Z" fill="#3A3844"></path>
          <path d="M28.5755 9.05267C28.3832 8.93304 28.2208 8.8305 28.0371 8.71941C28.2037 8.4545 28.3576 8.21096 28.5114 7.96742C28.9258 7.31371 29.3403 6.66 29.7462 6.00201C29.8273 5.86956 29.9 5.83965 30.0282 5.93792C30.1392 6.02338 30.2632 6.09174 30.3956 6.17292C29.7889 7.13853 29.1907 8.08706 28.5755 9.05267Z" fill="#3A3844"></path>
          <path d="M25.6018 37.5456C25.2729 36.4518 24.9524 35.3751 24.6362 34.3112C24.6704 34.2813 24.679 34.2684 24.6918 34.2642C25.2301 34.0634 25.2259 34.0676 25.3882 34.6145C25.6403 35.4648 25.8924 36.315 26.153 37.1653C26.2 37.3191 26.1915 37.4046 26.012 37.4345C25.8838 37.4558 25.7557 37.5028 25.6018 37.5456Z" fill="#3A3844"></path>
          <path d="M19.8036 34.7124C19.8463 34.7124 19.8677 34.7124 19.8891 34.7124C20.2095 34.7295 20.2052 34.7295 20.1753 35.0499C20.0942 35.9985 20.013 36.947 19.9403 37.8955C19.9275 38.0835 19.8891 38.1647 19.6754 38.1305C19.2823 38.0664 19.2823 38.075 19.3165 37.6776C19.3934 36.7718 19.4703 35.866 19.5344 34.9602C19.5515 34.7551 19.59 34.6269 19.8036 34.7124Z" fill="#3A3844"></path>
          <path d="M37.8982 17.9199C38.0349 18.5095 38.0349 18.5138 37.4923 18.5907C36.6036 18.7146 35.7148 18.83 34.8304 18.9539C34.6552 18.9795 34.5954 18.9283 34.5783 18.7531C34.5399 18.3557 34.5313 18.3515 34.933 18.2959C35.843 18.172 36.7531 18.0524 37.6632 17.9327C37.7358 17.9242 37.8127 17.9242 37.8982 17.9199Z" fill="#3A3844"></path>
          <path d="M28.5796 21.248C28.5583 21.5599 28.46 21.7777 28.1865 21.8888C28.1267 21.9144 28.1096 22.0426 28.0498 22.175C27.9473 22.0468 27.849 21.9272 27.7593 21.8162C27.6012 21.9657 27.4175 22.1366 27.1996 22.3416C27.1526 22.1964 27.1312 22.1237 27.1184 22.081C26.956 22.3032 26.7851 22.5381 26.6185 22.7773C26.6014 22.8029 26.5843 22.8457 26.5886 22.8756C26.6356 23.26 26.6014 23.6616 26.862 23.9948C26.8962 24.0375 26.9261 24.0888 26.9475 24.1443C27.0329 24.3664 27.1867 24.486 27.4175 24.5544C27.7764 24.6654 27.9131 24.9175 27.7977 25.1951C27.7721 25.2592 27.6696 25.3318 27.6012 25.3318C27.2722 25.3447 26.9475 25.3318 26.6185 25.3361C26.4476 25.3404 26.3408 25.2678 26.3151 25.1012C26.2809 24.8876 26.1613 24.7509 25.9733 24.6441C25.8622 24.58 25.7768 24.4647 25.6999 24.3579C25.3581 23.9051 25.0248 23.4437 24.6787 22.9909C24.6403 22.9396 24.5633 22.9055 24.5035 22.8969C23.9438 22.8115 23.9438 22.8158 23.4995 22.4014C23.3627 22.5723 23.2175 22.7346 23.0936 22.914C22.8372 23.2985 22.5894 23.6872 22.3501 24.0845C22.1792 24.3664 22.2091 24.4775 22.4783 24.674C22.5808 24.7509 22.6919 24.8192 22.7902 24.9004C22.9568 25.0371 22.9611 25.161 22.7817 25.2763C22.6492 25.3617 22.4826 25.4429 22.333 25.4429C22.0468 25.4386 21.752 25.3959 21.47 25.3318C21.2179 25.272 21.1794 25.1353 21.282 24.8961C21.3076 24.8363 21.3076 24.7423 21.2734 24.6911C21.1452 24.4689 21.1324 24.2511 21.2606 24.0247C21.3119 23.935 21.3332 23.8239 21.3589 23.7214C21.4785 23.2686 21.5981 22.8158 21.7178 22.363C21.7263 22.3245 21.7349 22.2818 21.752 22.2134C21.4016 22.2134 21.0598 22.2647 20.7393 22.2006C20.3121 22.1195 19.8976 21.9614 19.4832 21.8076C19.2482 21.7222 19.0816 21.7222 18.9448 21.9272C18.8551 22.0639 18.7867 22.2348 18.7611 22.3971C18.7098 22.7261 18.6372 23.0336 18.4407 23.3113C18.2527 23.5804 18.2655 23.6957 18.4962 23.9264C18.6586 24.093 18.838 24.2511 19.0217 24.392C19.0986 24.4476 19.2183 24.4476 19.3166 24.4732C19.4917 24.5159 19.684 24.5287 19.8421 24.6056C19.9318 24.6484 20.0215 24.8192 20.0002 24.9089C19.9745 25.0157 19.8464 25.1567 19.7395 25.1738C19.3678 25.2379 18.9918 25.2635 18.6158 25.2934C18.556 25.2977 18.4791 25.2549 18.4278 25.2122C17.9109 24.785 17.3981 24.3579 16.894 23.9222C16.8213 23.8581 16.7743 23.7342 16.7658 23.6317C16.7402 23.3113 16.7444 22.9909 16.7273 22.6705C16.7231 22.5851 16.6974 22.5039 16.6718 22.4228C16.6291 22.2861 16.5436 22.2562 16.4069 22.316C16.2573 22.3843 16.0907 22.4142 15.9369 22.4783C15.8173 22.5296 15.7019 22.6022 15.5951 22.6791C15.3857 22.8329 15.2063 23.0464 14.9756 23.1404C14.544 23.3113 14.3731 23.6359 14.2962 24.046C14.2663 24.1913 14.262 24.3365 14.2449 24.4946C14.4158 24.5159 14.5654 24.5245 14.7064 24.5544C14.9627 24.6056 15.0909 24.7551 15.0995 24.9858C15.108 25.2806 15.0226 25.366 14.7277 25.3788C14.4842 25.3874 14.2449 25.3874 14.0014 25.413C13.8134 25.4344 13.7109 25.3788 13.6681 25.1909C13.6339 25.0414 13.5784 24.8876 13.51 24.7509C13.4588 24.6484 13.3648 24.5715 13.305 24.4775C13.2622 24.4091 13.2195 24.328 13.2195 24.2511C13.211 23.8025 13.2195 23.354 13.211 22.9055C13.2067 22.756 13.3007 22.7132 13.4075 22.7047C13.5955 22.6919 13.651 22.5808 13.6767 22.4142C13.7749 21.7564 14.1424 21.2139 14.4287 20.6329C14.6252 20.2399 14.8217 19.8469 15.0183 19.4496C15.0525 19.3813 15.0653 19.3044 15.0952 19.2061C15.0055 19.2018 14.9371 19.1933 14.873 19.1976C14.1467 19.2104 13.4203 19.1976 12.694 19.2403C12.1471 19.2702 11.6557 19.4838 11.2669 19.8896C10.8653 20.3082 10.7499 21.2737 11.4464 21.7051C11.5489 21.7692 11.6814 21.8076 11.801 21.8204C12.3479 21.876 12.8264 22.0468 13.1554 22.521C13.1853 22.5637 13.2067 22.615 13.2323 22.6663C12.5444 23.0892 11.8095 22.9396 11.4763 22.3715C11.4293 22.2946 11.3481 22.2177 11.2669 22.1793C10.3483 21.7521 10.1005 20.2741 10.9251 19.5692C11.5532 19.031 12.2752 18.7277 13.0828 18.6294C13.6895 18.5568 14.3048 18.5739 14.9115 18.4885C15.3644 18.4244 15.8087 18.2834 16.2488 18.1467C16.8085 17.9716 17.381 17.946 17.9579 17.9417C19.0901 17.9374 20.2223 17.9759 21.3503 17.9289C22.0724 17.899 22.7859 17.7494 23.5037 17.6384C23.7174 17.6042 23.884 17.4931 24.0293 17.3095C24.3241 16.9293 24.7214 16.7669 25.2128 16.8097C25.5589 16.8396 25.8879 16.7456 26.204 16.5961C26.5629 16.4209 26.9389 16.3312 27.3406 16.3569C27.6055 16.3739 27.8319 16.4722 28.0199 16.673C28.0797 16.737 28.1652 16.784 28.2464 16.8182C28.5753 16.9592 28.7847 17.177 28.789 17.5572C28.7933 17.7238 28.8616 17.7537 29.0069 17.6683C29.0667 17.6341 29.118 17.5871 29.1692 17.5487C29.1863 18.1125 29.4598 18.5525 29.8272 18.9455C29.964 19.0908 30.105 19.2318 30.2417 19.377C30.3656 19.518 30.3699 19.6461 30.2887 19.8383C30.1263 20.2228 29.8187 20.2442 29.4854 20.2527C29.3359 20.257 29.1863 20.2484 29.0368 20.2698C28.9513 20.2826 28.8659 20.3339 28.8018 20.3894C28.7719 20.415 28.7676 20.4962 28.7847 20.5389C28.7933 20.5645 28.8702 20.5816 28.9129 20.5774C29.3658 20.556 29.3658 20.556 29.3658 21.0216C29.3658 21.0643 29.3743 21.1071 29.3786 21.1498C29.4042 21.6154 29.3231 21.6239 28.883 21.5428C28.7762 21.5171 28.7035 21.3719 28.5796 21.248Z" fill="#3A3844"></path>
          </g>
          <defs>
          <clipPath id="clip0_121_1465">
          <rect width="42" height="42" fill="white"></rect>
          </clipPath>
          </defs>
          </svg>