<svg xmlns="http://www.w3.org/2000/svg" width="38" height="38" viewBox="0 0 38 38" fill="none">
            <g clip-path="url(#clip0_1219_2499)">
            <path fill-rule="evenodd" clip-rule="evenodd" d="M33.3106 25.74H19.9957C19.6878 30.233 15.9329 33.7782 11.337 33.7782C6.53069 33.7782 2.64062 29.9121 2.64062 25.1355C2.64062 20.5752 6.20026 16.8435 10.7136 16.5225V5.73775C10.7136 4.90184 11.397 4.22266 12.2381 4.22266H30.8399C31.681 4.22266 32.3643 4.90184 32.3643 5.73775V7.29763H33.3106C34.1517 7.29763 34.8351 7.97681 34.8351 8.81272V24.2249C34.8351 25.0608 34.1517 25.74 33.3106 25.74ZM3.90227 25.1355C3.90227 29.218 7.2291 32.5243 11.337 32.5243C15.4448 32.5243 18.7716 29.218 18.7716 25.1355C18.7716 21.0529 15.4448 17.7466 11.337 17.7466C7.2291 17.7466 3.90227 21.0529 3.90227 25.1355ZM31.1177 6.13332C31.1177 5.76014 30.8098 5.45414 30.4343 5.45414H12.6286C12.2531 5.45414 11.9452 5.76014 11.9452 6.13332V6.70801C11.9452 7.09611 12.2907 7.29763 12.7638 7.29763H31.1177V6.13332ZM33.596 9.20829C33.596 8.83511 33.2881 8.52911 32.9126 8.52911H12.6286H12.6211H11.9603V9.11126C11.9528 9.14112 11.9528 9.17097 11.9528 9.20829V16.53C16.2559 16.8285 19.6878 20.2394 20.0032 24.5085H32.9201C33.2956 24.5085 33.6035 24.2025 33.6035 23.8293L33.596 9.20829ZM31.1252 17.7316C30.4418 17.7316 29.8936 17.1868 29.8936 16.5151C29.8936 15.8434 30.4418 15.2985 31.1252 15.2985C31.8086 15.2985 32.3568 15.8434 32.3568 16.5151C32.3568 17.1868 31.8011 17.7316 31.1252 17.7316ZM10.203 29.0986C10.1654 29.1359 10.1054 29.1359 10.0603 29.0986L9.32433 28.3672C9.31682 28.3597 9.32433 28.3597 9.31682 28.3522L6.33544 25.3892C6.29789 25.3519 6.29789 25.2922 6.33544 25.2474L7.0714 24.5234C7.10895 24.4861 7.16902 24.4861 7.21408 24.5234L10.1354 27.4268L15.5274 22.0679C15.565 22.0306 15.625 22.0306 15.6701 22.0679L16.4061 22.7994C16.4436 22.8367 16.4436 22.8964 16.4061 22.9412L10.203 29.0986Z" fill="#3A3844"></path>
            </g>
            <defs>
            <clipPath id="clip0_1219_2499">
            <rect width="32.1944" height="29.5556" fill="white" transform="translate(2.64062 4.22266)"></rect>
            </clipPath>
            </defs>
          </svg>