<svg xmlns="http://www.w3.org/2000/svg" width="39" height="38" viewBox="0 0 39 38" fill="none">
            <g clip-path="url(#clip0_578_2382)">
            <path d="M3.21484 36.4848C3.33528 35.658 3.46206 34.8375 3.57616 34.0107C3.71561 33.0058 3.84873 32.0009 3.98184 30.996C4.01354 30.7352 4.11496 30.5126 4.3178 30.3345C4.41288 30.2518 4.49529 30.1564 4.58403 30.0674C12.3618 22.2571 20.1459 14.4532 27.93 6.64291C29.1407 5.42812 30.9092 5.07195 32.4559 5.73341C33.9582 6.37579 34.9597 7.92131 34.9154 9.58131C34.8837 10.7389 34.4019 11.6992 33.5906 12.5133C29.3182 16.7937 25.0458 21.0805 20.7798 25.3672C17.4138 28.7445 14.0226 32.109 10.6883 35.5244C10.0544 36.1731 9.37619 36.4911 8.4951 36.5802C7.03716 36.7265 5.59191 36.9618 4.14665 37.1653C3.62053 37.2353 3.43036 37.1462 3.21484 36.6756C3.21484 36.612 3.21484 36.5484 3.21484 36.4848ZM9.9974 34.4177C10.1178 34.3987 10.1812 34.2905 10.2636 34.2142C17.4709 26.9827 24.6781 19.7512 31.8981 12.5197C32.1136 12.3035 32.1199 12.1763 31.8981 11.96C30.7317 10.8088 29.5844 9.64491 28.4244 8.48736C28.0884 8.15027 28.0884 8.15027 27.7461 8.49372C20.5833 15.6871 13.4204 22.874 6.25115 30.061C6.20044 30.1119 6.14973 30.1691 6.09268 30.22C5.94688 30.3409 5.95322 30.449 6.08634 30.5826C6.41596 30.9006 6.72656 31.2249 7.04984 31.5429C7.37312 31.8673 7.37312 31.8673 7.70274 31.5366C13.4077 25.8124 19.1126 20.0947 24.8113 14.3705C24.8873 14.2942 24.9634 14.2242 25.0331 14.1479C25.1599 13.9953 25.274 14.0207 25.4008 14.1543C25.5973 14.3641 25.8001 14.5613 26.003 14.7585C26.3262 15.0828 26.3262 15.0828 25.9966 15.4136C20.2917 21.1377 14.5867 26.8619 8.8881 32.5796C8.81838 32.6496 8.75499 32.7196 8.68526 32.7832C8.53313 32.9167 8.52679 33.0312 8.67892 33.1775C9.05925 33.5464 9.4269 33.9216 9.8009 34.2969C9.85795 34.3541 9.90866 34.4177 9.9974 34.4177ZM5.14819 31.3013C5.03409 32.1408 4.92633 32.904 4.81857 33.6609C4.72983 34.2905 4.65376 34.9202 4.55868 35.5435C4.52064 35.8042 4.53966 35.9569 4.86928 35.8615C5.06578 35.8042 5.28764 35.8042 5.49683 35.7788C6.59978 35.6262 7.70908 35.4799 8.81204 35.3272C8.88176 35.3145 8.97685 35.3209 9.0022 35.2446C9.0339 35.1619 8.93881 35.1173 8.8881 35.0728C8.50143 34.6849 8.11477 34.2969 7.7281 33.9026C6.88503 33.0503 6.0483 32.2044 5.14819 31.3013ZM33.7047 9.56223C33.7173 7.33617 31.4861 5.92422 29.5654 6.8846C29.3435 6.99908 29.2738 7.08812 29.4893 7.28529C29.7873 7.55242 30.0598 7.85134 30.3387 8.13119C31.2325 9.02797 32.1326 9.9184 33.0137 10.8215C33.2039 11.0123 33.299 11.006 33.4194 10.7579C33.6159 10.37 33.7237 9.95656 33.7047 9.56223Z" fill="#3A3844"></path>
            <path d="M8.6552 5.25684C8.78831 5.37132 8.93411 5.47944 9.06088 5.60664C11.8183 8.37331 14.5757 11.14 17.3331 13.9067C17.6247 14.1992 17.6247 14.2056 17.3331 14.4982C16.7689 15.0642 16.1921 15.6303 15.6343 16.209C15.4694 16.3808 15.349 16.3808 15.1969 16.2027C15.0447 16.0309 14.8799 15.8592 14.7024 15.7129C14.4933 15.5349 14.525 15.4013 14.7151 15.2296C14.9623 15.0006 15.1905 14.7462 15.4378 14.5172C15.5709 14.39 15.5962 14.2883 15.4504 14.1547C15.1969 13.913 14.9497 13.6713 14.7151 13.4169C14.5757 13.2706 14.4806 13.2961 14.3475 13.4296C13.9101 13.8749 13.4664 14.3073 13.029 14.7589C12.8895 14.9052 12.7818 14.9243 12.636 14.7653C12.4585 14.5681 12.2683 14.3837 12.0782 14.2056C11.9134 14.0529 11.926 13.9385 12.0782 13.7858C12.5092 13.366 12.9212 12.9272 13.3586 12.5138C13.5488 12.3357 13.5361 12.2149 13.3523 12.0558C13.1875 11.9096 13.029 11.7506 12.8832 11.5852C12.7564 11.4453 12.6487 11.4453 12.5219 11.5852C12.2683 11.8523 11.9958 12.1067 11.7422 12.3739C11.6091 12.5138 11.5013 12.5201 11.3746 12.3739C11.1464 12.1131 10.728 11.9223 10.7026 11.6106C10.6773 11.3053 11.102 11.1145 11.3302 10.8729C11.7422 10.4404 11.7486 10.4467 11.3175 10.0142C10.8738 9.56903 10.8738 9.56903 10.4237 10.0206C10.2462 10.1987 10.0624 10.3768 9.88493 10.5612C9.77083 10.6757 9.67575 10.6757 9.56165 10.5612C9.36515 10.3577 9.16231 10.1542 8.95946 9.957C8.81367 9.82343 8.83903 9.71531 8.97214 9.58811C9.23203 9.34006 9.47291 9.07293 9.7328 8.83125C9.87859 8.69768 9.90395 8.59592 9.74548 8.44328C9.35247 8.06167 8.9658 7.6737 8.58547 7.27937C8.43968 7.12672 8.33826 7.13944 8.19246 7.28573C7.24164 8.23975 6.2718 9.21922 5.29562 10.1796C5.06742 10.4022 5.25124 10.504 5.37802 10.6312C7.91356 13.1752 10.4491 15.7193 12.9783 18.257C13.2825 18.5623 13.2825 18.5623 12.9846 18.8676C12.7818 19.0711 12.5789 19.2683 12.3824 19.4718C12.262 19.6054 12.1542 19.599 12.0401 19.4718C11.9958 19.4273 11.9514 19.3828 11.907 19.3382C9.17498 16.6034 6.44928 13.8621 3.71725 11.1273C3.58413 10.9937 3.44468 10.8601 3.36227 10.6821C3.19112 10.3259 3.32424 10.027 3.57145 9.76619C3.90107 9.42274 4.23703 9.09201 4.57299 8.75492C5.57453 7.75002 6.57606 6.75147 7.57126 5.74657C7.74875 5.56848 7.93891 5.40312 8.14809 5.25684C8.31924 5.25684 8.49039 5.25684 8.6552 5.25684Z" fill="#3A3844"></path>
            <path d="M30.2623 37.395C29.9453 37.4077 29.7361 37.236 29.5396 37.0388C27.974 35.4679 26.4083 33.8969 24.8426 32.326C23.4987 30.9776 22.1676 29.6293 20.8111 28.2936C20.5765 28.0583 20.5765 27.9247 20.8237 27.7212C21.0329 27.5495 21.2231 27.346 21.4069 27.1424C21.5527 26.9834 21.6731 26.958 21.8189 27.1361C21.9013 27.2315 21.9964 27.3142 22.0852 27.4096C24.7158 30.049 27.3527 32.6885 29.977 35.3343C30.1925 35.5506 30.3066 35.5506 30.5222 35.3343C31.4413 34.3866 32.3794 33.4581 33.3176 32.5295C33.4951 32.3578 33.4951 32.2496 33.3176 32.0716C30.9025 29.6611 28.5001 27.2442 26.0913 24.8273C25.9138 24.6492 25.7997 24.6429 25.6286 24.8273C25.2229 25.2535 24.7919 25.6605 24.3862 26.093C24.2087 26.2774 24.0882 26.2711 23.9234 26.0866C23.7586 25.8958 23.5748 25.7241 23.391 25.546C23.2579 25.4188 23.2515 25.3107 23.3846 25.1708C24.1897 24.363 24.9947 23.5553 25.7997 22.7476C25.9265 22.6204 26.0216 22.6267 26.142 22.7539C26.2942 22.9193 26.4526 23.0719 26.6111 23.2246C29.4319 26.0485 32.2463 28.8787 35.0671 31.7027C35.4411 32.0779 35.4601 32.4977 35.0861 32.8729C33.6662 34.304 32.24 35.7286 30.8201 37.1597C30.6553 37.306 30.4778 37.4077 30.2623 37.395Z" fill="#3A3844"></path>
            <path d="M29.6939 30.0547C30.6131 30.061 31.3484 30.7925 31.3484 31.702C31.3484 32.6369 30.5877 33.3938 29.6622 33.3874C28.7495 33.3811 28.0078 32.6178 28.0078 31.6956C28.0078 30.7797 28.7558 30.0547 29.6939 30.0547ZM29.6686 30.8433C29.1742 30.8497 28.7811 31.244 28.7875 31.7211C28.7938 32.2171 29.1805 32.5988 29.6749 32.5988C30.1694 32.5988 30.537 32.2235 30.537 31.7147C30.537 31.1995 30.182 30.837 29.6686 30.8433Z" fill="#3A3844"></path>
            </g>
            <defs>
            <clipPath id="clip0_578_2382">
            <rect width="32.1379" height="32.1379" fill="white" transform="translate(3.21484 5.25879)"></rect>
            </clipPath>
            </defs>
          </svg>